#N canvas 217 23 1175 770 10;
#N canvas 0 22 581 372 (subpatch) 0;
#X array sample 44100 float 2;
#X coords 0 1 44100 -1 200 140 2 0 0;
#X restore 159 64 graph;
#N canvas 0 23 450 278 (subpatch) 0;
#X array grain 12275 float 2;
#X coords 0 1 12275 -1 200 140 1 0 0;
#X restore 364 64 graph;
#X obj 101 303 metro;
#X obj 111 64 tgl 30 0 empty empty On/Off 0 40 0 10 -4034 -1 -1 1 1
;
#X obj 128 275 r duration;
#X obj 101 331 s play;
#X obj 48 275 t b;
#X obj 48 303 spigot;
#X obj 48 331 s stop;
#X obj 286 545 throw~ left;
#X obj 371 545 throw~ right;
#X obj 286 448 vline~;
#X obj 286 392 pack f f f;
#X obj 286 265 r startSample;
#X obj 314 285 r endSample;
#X obj 343 324 r duration;
#X msg 286 418 \$1 10 \, \$2 \$3 10;
#X obj 322 306 t b;
#X obj 352 346 t b;
#X obj 243 329 r play;
#X obj 243 351 bng 15 250 50 0 empty empty empty 17 7 0 10 -262144
-1 -1;
#X msg 234 418 0 \, 10;
#X obj 234 392 r stop;
#X obj 333 448 s started;
#X obj 165 556 tabwrite~ grain;
#X obj 286 476 tabread4~ sample;
#X obj 828 62 r duration;
#X floatatom 828 90 25 0 0 0 - - -;
#X obj 654 62 r startSample;
#X floatatom 654 90 10 0 0 0 - - -;
#X floatatom 747 90 10 0 0 0 - - -;
#X obj 747 62 r endSample;
#X text 829 109 milliseconds;
#X text 358 391 comment;
#N canvas 198 365 723 486 synthsliders 0;
#X obj 73 260 *;
#X obj 103 100 hsl 195 15 0 1 0 0 empty empty start 5 8 0 10 -228856
-1 -1 13800 1;
#X obj 103 115 hsl 195 15 0 1 0 0 empty empty empty -2 -8 0 10 -262144
-1 -1 16600 1;
#X obj 308 100 hsl 195 15 -2 2 0 0 empty empty empty -2 -8 0 10 -262144
-1 -1 19400 1;
#X obj 88 231 r samplesize;
#X floatatom 73 205 5 0 0 0 - - -;
#X floatatom 83 285 10 0 0 0 - - -;
#X floatatom 189 205 5 0 0 0 - - -;
#X obj 189 263 *;
#X floatatom 198 289 10 0 0 0 - - -;
#X obj 204 234 r samplesize;
#X floatatom 305 196 5 0 0 0 - - -;
#X obj 320 241 r endSample;
#X obj 401 241 r startSample;
#X obj 320 270 -;
#X obj 320 295 / 44.1;
#X obj 305 337 *;
#X obj 305 359 abs;
#X obj 189 312 s endSample;
#X obj 73 308 s startSample;
#X obj 305 381 s duration;
#X obj 519 259 expr size("sample");
#X obj 519 233 bng 15 250 50 0 empty empty empty 17 7 0 10 -262144
-1 -1;
#X obj 519 205 t b;
#X obj 519 315 s samplesize;
#X obj 209 15 loadbang;
#X obj 209 43 1;
#X obj 325 43 1;
#X obj 102 72 r startSampleSlider;
#X obj 61 44 r endSampleSlider;
#X obj 306 72 r durationSlider;
#X obj 428 390 s samples;
#X obj 428 334 *;
#X obj 519 287 abs;
#X obj 428 362 abs;
#X connect 0 0 6 0;
#X connect 0 0 19 0;
#X connect 1 0 5 0;
#X connect 1 0 23 0;
#X connect 2 0 7 0;
#X connect 2 0 23 0;
#X connect 3 0 11 0;
#X connect 3 0 23 0;
#X connect 4 0 0 1;
#X connect 5 0 0 0;
#X connect 7 0 8 0;
#X connect 8 0 9 0;
#X connect 8 0 18 0;
#X connect 10 0 8 1;
#X connect 11 0 16 0;
#X connect 11 0 32 0;
#X connect 12 0 14 0;
#X connect 13 0 14 1;
#X connect 14 0 15 0;
#X connect 14 0 32 1;
#X connect 15 0 16 1;
#X connect 16 0 17 0;
#X connect 17 0 20 0;
#X connect 21 0 33 0;
#X connect 22 0 21 0;
#X connect 22 0 32 0;
#X connect 22 0 14 0;
#X connect 23 0 22 0;
#X connect 25 0 26 0;
#X connect 25 0 27 0;
#X connect 26 0 2 0;
#X connect 27 0 3 0;
#X connect 28 0 1 0;
#X connect 29 0 2 0;
#X connect 30 0 3 0;
#X connect 32 0 34 0;
#X connect 33 0 24 0;
#X connect 34 0 31 0;
#X coords 0 -1 1 1 405 30 1 100 100;
#X restore 159 204 pd synthsliders;
#X floatatom 828 164 15 0 0 0 - - -;
#X obj 828 136 r samples;
#X obj 652 344 r startSample;
#X obj 698 317 r endSample;
#X floatatom 652 445 5 0 0 0 - - -;
#X msg 560 335 stop;
#X msg 556 367 start;
#X obj 661 366 t b;
#X obj 651 560 tabread4 sample;
#X obj 642 609 tabwrite grain;
#X obj 827 490 f;
#X obj 858 491 + 1;
#X obj 804 443 t b 0;
#X floatatom 828 517 15 0 0 0 - - -;
#X obj 743 447 bng 15 250 50 0 empty empty empty 17 7 0 10 -262144
-1 -1;
#X obj 888 436 t b;
#X obj 936 364 s readSamples;
#X obj 925 243 r endSample;
#X obj 1023 236 r startSample;
#X obj 922 288 expr ($f1 - $f2);
#X obj 923 314 abs;
#X floatatom 925 337 15 0 0 0 - - -;
#X obj 1031 265 t b;
#X floatatom 997 507 5 0 0 0 - - -;
#X obj 999 474 /;
#X obj 1009 438 t b;
#X obj 835 563 *;
#X floatatom 667 486 15 0 0 0 - - -;
#X obj 949 527 t b;
#X obj 995 404 r samples;
#X obj 1041 436 r readSamples;
#X obj 1073 491 bng 15 250 50 0 empty empty empty 17 7 0 10 -262144
-1 -1;
#X obj 615 294 r samples;
#X obj 623 318 t b;
#X obj 711 366 t f b;
#X msg 943 591 resize \$1;
#X obj 944 627 s grain;
#X obj 652 392 for++ 0 44100 0;
#X connect 2 0 5 0;
#X connect 3 0 2 0;
#X connect 3 0 6 0;
#X connect 3 0 7 1;
#X connect 4 0 2 1;
#X connect 6 0 7 0;
#X connect 7 0 8 0;
#X connect 11 0 25 0;
#X connect 12 0 16 0;
#X connect 13 0 12 0;
#X connect 14 0 12 1;
#X connect 14 0 17 0;
#X connect 15 0 12 2;
#X connect 15 0 18 0;
#X connect 16 0 11 0;
#X connect 16 0 23 0;
#X connect 17 0 12 0;
#X connect 18 0 12 0;
#X connect 19 0 20 0;
#X connect 20 0 12 0;
#X connect 21 0 11 0;
#X connect 22 0 21 0;
#X connect 25 0 9 0;
#X connect 25 0 10 0;
#X connect 26 0 27 0;
#X connect 28 0 29 0;
#X connect 31 0 30 0;
#X connect 35 0 70 0;
#X connect 36 0 35 0;
#X connect 37 0 42 0;
#X connect 37 0 72 0;
#X connect 38 0 69 0;
#X connect 39 0 43 0;
#X connect 40 0 72 0;
#X connect 41 0 72 0;
#X connect 42 0 49 0;
#X connect 42 0 72 0;
#X connect 43 0 44 0;
#X connect 45 0 46 0;
#X connect 45 0 48 0;
#X connect 46 0 45 1;
#X connect 47 1 45 1;
#X connect 48 0 61 0;
#X connect 49 0 47 0;
#X connect 50 0 45 0;
#X connect 52 0 54 0;
#X connect 53 0 54 1;
#X connect 53 0 57 0;
#X connect 54 0 55 0;
#X connect 55 0 56 0;
#X connect 56 0 51 0;
#X connect 57 0 54 0;
#X connect 58 0 61 1;
#X connect 58 0 63 0;
#X connect 59 0 58 0;
#X connect 59 0 66 0;
#X connect 60 0 59 0;
#X connect 61 0 62 0;
#X connect 62 0 44 1;
#X connect 63 0 61 0;
#X connect 64 0 59 0;
#X connect 65 0 59 1;
#X connect 65 0 60 0;
#X connect 67 0 68 0;
#X connect 68 0 49 0;
#X connect 68 0 72 0;
#X connect 69 0 72 1;
#X connect 69 1 49 0;
#X connect 69 1 72 0;
#X connect 70 0 71 0;
#X connect 72 0 39 0;
#X connect 72 0 50 0;
#X coords 0 -1 1 1 500 200 2 100 50;
