#N canvas 174 179 1175 770 10;
#N canvas 0 22 581 372 (subpatch) 0;
#X array sample 44100 float 2;
#X coords 0 1 44100 -1 200 140 2 0 0;
#X restore 159 174 graph;
#N canvas 0 23 450 278 (subpatch) 0;
#X array grain 5624 float 2;
#X coords 0 1 5624 -1 200 140 1 0 0;
#X restore 364 174 graph;
#X obj 103 174 tgl 30 0 empty empty LoopOn/Off 0 40 0 10 -4034 -1 -1
0 1;
#X obj 285 432 r duration;
#X floatatom 285 460 25 0 0 0 - - -;
#X obj 111 432 r startSample;
#X floatatom 111 460 10 0 0 0 - - -;
#X floatatom 204 460 10 0 0 0 - - -;
#X obj 204 432 r endSample;
#X text 286 479 milliseconds;
#N canvas 198 365 723 486 synthsliders 0;
#X obj 73 260 *;
#X obj 103 100 hsl 195 15 0 1 0 0 empty empty start 5 8 0 10 -228856
-1 -1 6100 0;
#X obj 103 115 hsl 195 15 0 1 0 0 empty empty empty -2 -8 0 10 -262144
-1 -1 14000 0;
#X obj 308 100 hsl 195 15 -2 2 0 0 empty empty empty -2 -8 0 10 -262144
-1 -1 11200 0;
#X obj 88 231 r samplesize;
#X floatatom 73 205 5 0 0 0 - - -;
#X floatatom 83 285 10 0 0 0 - - -;
#X floatatom 189 205 5 0 0 0 - - -;
#X obj 189 263 *;
#X floatatom 198 289 10 0 0 0 - - -;
#X obj 204 234 r samplesize;
#X floatatom 305 196 5 0 0 0 - - -;
#X obj 320 241 r endSample;
#X obj 401 241 r startSample;
#X obj 320 270 -;
#X obj 320 295 / 44.1;
#X obj 305 337 *;
#X obj 305 359 abs;
#X obj 189 312 s endSample;
#X obj 73 308 s startSample;
#X obj 305 381 s duration;
#X obj 519 259 expr size("sample");
#X obj 519 233 bng 15 250 50 0 empty empty empty 17 7 0 10 -262144
-1 -1;
#X obj 519 205 t b;
#X obj 519 315 s samplesize;
#X obj 209 15 loadbang;
#X obj 209 43 1;
#X obj 325 43 1;
#X obj 102 72 r startSampleSlider;
#X obj 61 44 r endSampleSlider;
#X obj 306 72 r durationSlider;
#X obj 428 390 s samples;
#X obj 428 334 *;
#X obj 519 287 abs;
#X obj 428 362 abs;
#X connect 0 0 6 0;
#X connect 0 0 19 0;
#X connect 1 0 5 0;
#X connect 1 0 23 0;
#X connect 2 0 7 0;
#X connect 2 0 23 0;
#X connect 3 0 11 0;
#X connect 3 0 23 0;
#X connect 4 0 0 1;
#X connect 5 0 0 0;
#X connect 7 0 8 0;
#X connect 8 0 9 0;
#X connect 8 0 18 0;
#X connect 10 0 8 1;
#X connect 11 0 16 0;
#X connect 11 0 32 0;
#X connect 12 0 14 0;
#X connect 13 0 14 1;
#X connect 14 0 15 0;
#X connect 14 0 32 1;
#X connect 15 0 16 1;
#X connect 16 0 17 0;
#X connect 17 0 20 0;
#X connect 21 0 33 0;
#X connect 22 0 21 0;
#X connect 22 0 32 0;
#X connect 22 0 14 0;
#X connect 23 0 22 0;
#X connect 25 0 26 0;
#X connect 25 0 27 0;
#X connect 26 0 2 0;
#X connect 27 0 3 0;
#X connect 28 0 1 0;
#X connect 29 0 2 0;
#X connect 30 0 3 0;
#X connect 32 0 34 0;
#X connect 33 0 24 0;
#X connect 34 0 31 0;
#X coords 0 -1 1 1 405 30 1 100 100;
#X restore 159 314 pd synthsliders;
#X floatatom 285 534 15 0 0 0 - - -;
#X obj 285 506 r samples;
#X obj 452 535 s readSamples;
#X obj 452 451 r endSample;
#X obj 545 433 r startSample;
#X obj 452 479 expr ($f1 - $f2);
#X obj 452 507 abs;
#X obj 524 456 t b;
#X msg 285 561 resize \$1;
#X obj 285 589 s grain;
#X text 121 408 a few helpers and slider value checks;
#N canvas 469 366 773 465 autoplay 0;
#X obj 298 351 throw~ left;
#X obj 383 351 throw~ right;
#X obj 298 254 vline~;
#X obj 298 198 pack f f f;
#X obj 298 71 r startSample;
#X obj 326 91 r endSample;
#X obj 355 130 r duration;
#X msg 298 224 \$1 10 \, \$2 \$3 10;
#X obj 334 112 t b;
#X obj 364 152 t b;
#X obj 255 135 r play;
#X obj 255 157 bng 15 250 50 0 empty empty empty 17 7 0 10 -262144
-1 -1;
#X msg 246 224 0 \, 10;
#X obj 246 198 r stop;
#X obj 345 254 s started;
#X obj 298 282 tabread4~ sample;
#X text 370 197 comment;
#X obj 40 50 inlet;
#X obj 93 106 metro;
#X obj 120 78 r duration;
#X obj 93 134 s play;
#X obj 40 78 t b;
#X obj 40 106 spigot;
#X obj 40 134 s stop;
#X text 41 16 @inlet checkbox toggle;
#X connect 2 0 15 0;
#X connect 3 0 7 0;
#X connect 4 0 3 0;
#X connect 5 0 3 1;
#X connect 5 0 8 0;
#X connect 6 0 3 2;
#X connect 6 0 9 0;
#X connect 7 0 2 0;
#X connect 7 0 14 0;
#X connect 8 0 3 0;
#X connect 9 0 3 0;
#X connect 10 0 11 0;
#X connect 11 0 3 0;
#X connect 12 0 2 0;
#X connect 13 0 12 0;
#X connect 15 0 0 0;
#X connect 15 0 1 0;
#X connect 17 0 21 0;
#X connect 17 0 18 0;
#X connect 18 0 20 0;
#X connect 19 0 18 1;
#X connect 21 0 22 0;
#X connect 22 0 23 0;
#X restore 103 372 pd autoplay;
#N canvas 766 354 718 545 grainresizing 0;
#X obj 107 47 r startSample;
#X obj 166 75 r endSample;
#X obj 116 103 t b;
#X obj 107 367 tabread4 sample;
#X obj 107 395 tabwrite grain;
#X obj 153 297 f;
#X obj 184 298 + 1;
#X obj 141 241 t b 0;
#X obj 141 215 bng 15 250 50 0 empty empty empty 17 7 0 10 -262144
-1 -1;
#X obj 153 269 t b;
#X obj 212 311 /;
#X obj 237 282 t b;
#X obj 212 367 *;
#X obj 212 339 t b;
#X obj 212 226 r samples;
#X obj 237 254 r readSamples;
#X obj 38 81 r samples;
#X obj 38 109 t b;
#X obj 166 103 t f b;
#X obj 107 129 for++ 0 44100 0;
#X connect 0 0 2 0;
#X connect 0 0 19 0;
#X connect 1 0 18 0;
#X connect 2 0 8 0;
#X connect 2 0 19 0;
#X connect 3 0 4 0;
#X connect 5 0 6 0;
#X connect 5 0 12 0;
#X connect 6 0 5 1;
#X connect 7 1 5 1;
#X connect 8 0 7 0;
#X connect 9 0 5 0;
#X connect 10 0 12 1;
#X connect 10 0 13 0;
#X connect 11 0 10 0;
#X connect 12 0 4 1;
#X connect 13 0 12 0;
#X connect 14 0 10 0;
#X connect 15 0 10 1;
#X connect 15 0 11 0;
#X connect 16 0 17 0;
#X connect 17 0 8 0;
#X connect 17 0 19 0;
#X connect 18 0 19 1;
#X connect 18 1 8 0;
#X connect 18 1 19 0;
#X connect 19 0 9 0;
#X connect 19 0 3 0;
#X restore 180 372 pd grainresizing;
#X obj -59 165 bng 15 250 50 0 empty empty empty 17 7 0 10 -262144
-1 -1;
#X obj -59 55 inlet;
#X obj -14 55 r counter;
#X obj 101 53 tgl 25 0 empty empty empty 17 7 0 10 -204786 -1 -1 0
1;
#X obj -59 83 spigot;
#X obj -59 137 spigot;
#X obj -59 111 bng 15 250 50 0 empty empty empty 17 7 0 10 -262144
-1 -1;
#X text 111 173 1 if for current counter the checkbox is checked \,
else 0;
#X obj 156 53 toggleradio;
#X obj 949 23 r counter_size;
#X obj 156 21 r counter;
#X obj -59 188 s play;
#X connect 2 0 22 0;
#X connect 3 0 4 0;
#X connect 5 0 6 0;
#X connect 8 0 7 0;
#X connect 11 0 19 0;
#X connect 12 0 11 0;
#X connect 14 0 16 0;
#X connect 15 0 16 1;
#X connect 15 0 18 0;
#X connect 16 0 17 0;
#X connect 17 0 13 0;
#X connect 18 0 16 0;
#X connect 19 0 20 0;
#X connect 24 0 35 0;
#X connect 25 0 28 0;
#X connect 26 0 28 0;
#X connect 27 0 28 1;
#X connect 28 0 30 0;
#X connect 29 0 24 0;
#X connect 30 0 29 0;
#X connect 32 0 29 1;
#X connect 33 0 32 1;
#X connect 34 0 32 0;
#X coords 0 -1 1 1 860 300 2 100 50;
