#N canvas 187 135 1117 706 10;
#N canvas 0 22 581 372 (subpatch) 0;
#X array sample 44100 float 2;
#X coords 0 1 44100 -1 200 140 2 0 0;
#X restore 159 64 graph;
#N canvas 0 23 450 278 (subpatch) 0;
#X array grain 1340 float 2;
#X coords 0 1 1340 -1 200 140 1 0 0;
#X restore 364 64 graph;
#X obj 101 303 metro;
#X obj 111 64 tgl 30 0 empty empty On/Off 0 40 0 10 -4034 -1 -1 0 1
;
#X obj 128 275 r duration;
#X obj 101 331 s play;
#X obj 48 275 t b;
#X obj 48 303 spigot;
#X obj 48 331 s stop;
#X obj 774 312 throw~ left;
#X obj 859 312 throw~ right;
#X obj 774 215 vline~;
#X obj 774 159 pack f f f;
#X obj 774 32 r startSample;
#X obj 802 52 r endSample;
#X obj 831 91 r duration;
#X msg 774 185 \$1 10 \, \$2 \$3 10;
#X obj 810 73 t b;
#X obj 840 113 t b;
#X obj 731 96 r play;
#X obj 731 118 bng 15 250 50 0 empty empty empty 17 7 0 10 -262144
-1 -1;
#X msg 722 185 0 \, 10;
#X obj 722 159 r stop;
#X obj 821 215 s started;
#X obj 934 128 bng 15 250 50 0 empty empty empty 17 7 0 10 -262144
-1 -1;
#X obj 934 69 r startSample;
#X obj 934 91 t b;
#X obj 971 116 t b;
#X obj 971 94 r endSample;
#X obj 978 141 t b;
#X obj 1010 116 r duration;
#X obj 904 254 bng 15 250 50 0 empty empty empty 17 7 0 10 -262144
-1 -1;
#X obj 949 168 r duration;
#X obj 934 200 f;
#X obj 934 148 t b;
#X obj 904 279 tabwrite~ grain;
#X obj 774 243 tabread4~ sample;
#X obj 826 408 r duration;
#X floatatom 826 436 25 0 0 0 - - -;
#X obj 652 408 r startSample;
#X floatatom 652 436 10 0 0 0 - - -;
#X floatatom 745 436 10 0 0 0 - - -;
#X obj 934 251 s grain;
#X msg 934 223 resize \$1;
#X obj 1035 252 print;
#X obj 745 408 r endSample;
#X text 827 455 milliseconds;
#X text 846 158;
#N canvas 434 328 723 486 synthsliders 0;
#X obj 94 469 *;
#X obj 103 100 hsl 195 15 0 1 0 0 empty empty start 5 8 0 10 -228856
-1 -1 0 1;
#X obj 103 115 hsl 195 15 0 1 0 0 empty empty empty -2 -8 0 10 -262144
-1 -1 19400 1;
#X obj 308 100 hsl 195 15 -5 5 0 0 empty empty empty -2 -8 0 10 -262144
-1 -1 12300 1;
#X obj 109 440 r samplesize;
#X floatatom 94 414 5 0 0 0 - - -;
#X floatatom 104 494 10 0 0 0 - - -;
#X floatatom 210 414 5 0 0 0 - - -;
#X obj 210 472 *;
#X floatatom 219 498 10 0 0 0 - - -;
#X obj 225 443 r samplesize;
#X floatatom 326 405 5 0 0 0 - - -;
#X obj 341 450 r endSample;
#X obj 422 450 r startSample;
#X obj 341 479 -;
#X obj 341 504 / 44.1;
#X floatatom 358 527 5 0 0 0 - - -;
#X obj 326 546 *;
#X obj 326 568 abs;
#X obj 210 521 s endSample;
#X obj 94 517 s startSample;
#X obj 326 590 s duration;
#X obj 540 468 expr size("sample");
#X obj 540 442 bng 15 250 50 0 empty empty empty 17 7 0 10 -262144
-1 -1;
#X obj 540 414 t b;
#X obj 540 496 s samplesize;
#X obj 209 15 loadbang;
#X obj 209 43 1;
#X obj 325 43 1;
#X obj 102 72 r startSampleSlider;
#X obj 61 44 r endSampleSlider;
#X obj 306 72 r durationSlider;
#X connect 0 0 6 0;
#X connect 0 0 20 0;
#X connect 1 0 5 0;
#X connect 1 0 24 0;
#X connect 2 0 7 0;
#X connect 2 0 24 0;
#X connect 3 0 11 0;
#X connect 3 0 24 0;
#X connect 4 0 0 1;
#X connect 5 0 0 0;
#X connect 7 0 8 0;
#X connect 8 0 9 0;
#X connect 8 0 19 0;
#X connect 10 0 8 1;
#X connect 11 0 17 0;
#X connect 12 0 14 0;
#X connect 13 0 14 1;
#X connect 14 0 15 0;
#X connect 15 0 16 0;
#X connect 15 0 17 1;
#X connect 17 0 18 0;
#X connect 18 0 21 0;
#X connect 22 0 25 0;
#X connect 23 0 22 0;
#X connect 24 0 23 0;
#X connect 26 0 27 0;
#X connect 26 0 28 0;
#X connect 27 0 2 0;
#X connect 28 0 3 0;
#X connect 29 0 1 0;
#X connect 30 0 2 0;
#X connect 31 0 3 0;
#X coords 0 -1 1 1 405 30 1 100 100;
#X restore 159 204 pd synthsliders;
#X connect 2 0 5 0;
#X connect 3 0 2 0;
#X connect 3 0 6 0;
#X connect 3 0 7 1;
#X connect 4 0 2 1;
#X connect 6 0 7 0;
#X connect 7 0 8 0;
#X connect 11 0 36 0;
#X connect 12 0 16 0;
#X connect 13 0 12 0;
#X connect 14 0 12 1;
#X connect 14 0 17 0;
#X connect 15 0 12 2;
#X connect 15 0 18 0;
#X connect 16 0 11 0;
#X connect 16 0 23 0;
#X connect 17 0 12 0;
#X connect 18 0 12 0;
#X connect 19 0 20 0;
#X connect 20 0 12 0;
#X connect 21 0 11 0;
#X connect 22 0 21 0;
#X connect 24 0 34 0;
#X connect 25 0 26 0;
#X connect 26 0 24 0;
#X connect 27 0 24 0;
#X connect 28 0 27 0;
#X connect 29 0 24 0;
#X connect 30 0 29 0;
#X connect 31 0 35 0;
#X connect 32 0 33 1;
#X connect 33 0 43 0;
#X connect 34 0 33 0;
#X connect 36 0 9 0;
#X connect 36 0 10 0;
#X connect 36 0 35 0;
#X connect 37 0 38 0;
#X connect 39 0 40 0;
#X connect 43 0 31 0;
#X connect 43 0 42 0;
#X connect 43 0 44 0;
#X connect 45 0 41 0;
#X coords 0 -1 1 1 500 200 2 100 50;
