#N canvas 265 65 1117 706 10;
#N canvas 0 22 450 278 (subpatch) 0;
#X array sample 44100 float 2;
#X coords 0 1 44100 -1 200 140 1 0 0;
#X restore 98 101 graph;
#N canvas 0 22 450 278 (subpatch) 0;
#X array grain 1 float 2;
#X coords 0 1 1 -1 200 140 1 0 0;
#X restore 303 101 graph;
#N canvas 47 383 605 466 sliders 0;
#X obj 29 68 hsl 100 15 0 1 0 0 empty empty empty -2 -8 0 10 -262144
-1 -1 0 1;
#X obj 145 68 hsl 100 15 0 1 0 0 empty empty empty -2 -8 0 10 -262144
-1 -1 0 1;
#X obj 261 68 hsl 100 15 0 1 0 0 empty empty empty -2 -8 0 10 -262144
-1 -1 0 1;
#X obj 41 132 r samplesize;
#X floatatom 26 106 5 0 0 0 - - -;
#X obj 26 161 *;
#X floatatom 36 186 10 0 0 0 - - -;
#X floatatom 142 106 5 0 0 0 - - -;
#X obj 142 164 *;
#X floatatom 151 190 10 0 0 0 - - -;
#X obj 157 135 r samplesize;
#X floatatom 258 97 5 0 0 0 - - -;
#X obj 273 142 r endSample;
#X obj 355 141 r startSample;
#X obj 273 171 -;
#X obj 273 196 / 44.1;
#X floatatom 290 219 5 0 0 0 - - -;
#X obj 258 238 *;
#X obj 258 120 * 5;
#X obj 258 260 abs;
#X obj 142 213 s endSample;
#X obj 26 209 s startSample;
#X obj 258 282 s duration;
#X obj 400 58 expr size("sample");
#X obj 400 32 bng 15 250 50 0 empty empty empty 17 7 0 10 -262144 -1
-1;
#X obj 400 4 t b;
#X obj 400 86 s samplesize;
#X connect 0 0 4 0;
#X connect 0 0 25 0;
#X connect 1 0 7 0;
#X connect 1 0 25 0;
#X connect 2 0 11 0;
#X connect 2 0 25 0;
#X connect 3 0 5 1;
#X connect 4 0 5 0;
#X connect 5 0 6 0;
#X connect 5 0 21 0;
#X connect 7 0 8 0;
#X connect 8 0 9 0;
#X connect 8 0 20 0;
#X connect 10 0 8 1;
#X connect 11 0 18 0;
#X connect 12 0 14 0;
#X connect 13 0 14 1;
#X connect 14 0 15 0;
#X connect 15 0 16 0;
#X connect 15 0 17 1;
#X connect 17 0 19 0;
#X connect 18 0 17 0;
#X connect 19 0 22 0;
#X connect 23 0 26 0;
#X connect 24 0 23 0;
#X connect 25 0 24 0;
#X coords 0 -1 1 1 350 30 2 20 60;
#X restore 150 54 pd sliders;
#X obj 101 303 metro;
#X obj 121 61 tgl 15 0 empty empty On/Off -40 10 0 10 -4034 -1 -1 0
1;
#X obj 133 280 r duration;
#X obj 101 327 s play;
#X obj 48 282 t b;
#X obj 48 303 spigot;
#X obj 48 326 s stop;
#X obj 95 655 throw~ left;
#X obj 180 655 throw~ right;
#X obj 95 558 vline~;
#X obj 95 502 pack f f f;
#X text 167 501 starting sample \, end sample \, duration;
#X obj 95 375 r startSample;
#X obj 123 395 r endSample;
#X obj 152 434 r duration;
#X msg 95 528 \$1 10 \, \$2 \$3 10;
#X obj 131 416 t b;
#X obj 161 456 t b;
#X obj 52 439 r play;
#X obj 52 461 bng 15 250 50 0 empty empty empty 17 7 0 10 -262144 -1
-1;
#X msg 43 528 0 \, 10;
#X obj 43 502 r stop;
#X obj 142 558 s started;
#X obj 304 326 bng 15 250 50 0 empty empty empty 17 7 0 10 -262144
-1 -1;
#X obj 304 267 r startSample;
#X obj 304 289 t b;
#X obj 341 314 t b;
#X obj 341 292 r endSample;
#X obj 348 339 t b;
#X obj 380 314 r duration;
#X obj 274 452 bng 15 250 50 0 empty empty empty 17 7 0 10 -262144
-1 -1;
#X obj 319 366 r duration;
#X obj 304 398 f;
#X obj 304 346 t b;
#X obj 225 622 tabwrite~ grain;
#X obj 95 586 tabread4~ sample;
#X obj 707 394 r duration;
#X floatatom 707 422 25 0 0 0 - - -;
#X obj 533 394 r startSample;
#X floatatom 533 422 10 0 0 0 - - -;
#X floatatom 626 422 10 0 0 0 - - -;
#X obj 304 444 s grain;
#X msg 304 421 resize \$1;
#X obj 405 450 print;
#X obj 626 394 r endSample;
#X obj 425 372 * 44100;
#X connect 3 0 6 0;
#X connect 4 0 3 0;
#X connect 4 0 7 0;
#X connect 4 0 8 1;
#X connect 5 0 3 1;
#X connect 7 0 8 0;
#X connect 8 0 9 0;
#X connect 12 0 38 0;
#X connect 13 0 18 0;
#X connect 15 0 13 0;
#X connect 16 0 13 1;
#X connect 16 0 19 0;
#X connect 17 0 13 2;
#X connect 17 0 20 0;
#X connect 18 0 12 0;
#X connect 18 0 25 0;
#X connect 19 0 13 0;
#X connect 20 0 13 0;
#X connect 21 0 22 0;
#X connect 22 0 13 0;
#X connect 23 0 12 0;
#X connect 24 0 23 0;
#X connect 26 0 36 0;
#X connect 27 0 28 0;
#X connect 28 0 26 0;
#X connect 29 0 26 0;
#X connect 30 0 29 0;
#X connect 31 0 26 0;
#X connect 32 0 31 0;
#X connect 33 0 37 0;
#X connect 34 0 48 0;
#X connect 35 0 45 0;
#X connect 36 0 35 0;
#X connect 38 0 10 0;
#X connect 38 0 11 0;
#X connect 38 0 37 0;
#X connect 39 0 40 0;
#X connect 41 0 42 0;
#X connect 45 0 33 0;
#X connect 45 0 44 0;
#X connect 45 0 46 0;
#X connect 47 0 43 0;
#X connect 48 0 35 1;
#X coords 0 -1 1 1 500 200 1 50 50;
