#N canvas 201 37 1178 780 10;
#N canvas 236 384 1132 510 counter 0;
#X obj 206 100 hradio 25 1 0 32 counter counter_radio empty 0 -8 0
10 -262144 -1 -1 9;
#X obj 206 44 metro;
#X obj 100 100 tgl 25 0 empty empty empty 17 7 0 10 -4034 -1 -262144
1 1;
#X floatatom 136 105 5 1 32 0 - - -;
#X obj 206 72 counter 0;
#X obj 136 198 s counter_radio;
#X obj 233 16 inlet;
#X obj 136 44 loadbang;
#X obj 136 72 8;
#X msg 136 170 number \$1;
#X obj 219 130 s counter_size;
#X obj 257 44 - 1;
#X obj 278 16 r playbackspeed;
#X connect 1 0 4 0;
#X connect 2 0 1 0;
#X connect 3 0 10 0;
#X connect 3 0 11 0;
#X connect 3 0 9 0;
#X connect 4 0 0 0;
#X connect 6 0 1 1;
#X connect 7 0 8 0;
#X connect 8 0 3 0;
#X connect 9 0 5 0;
#X connect 11 0 4 4;
#X connect 12 0 1 1;
#X coords 0 -1 1 1 930 25 2 100 100;
#X restore 21 71 pd counter;
#X obj 21 599 granularsynth;
#N canvas 481 138 923 715 volume 0;
#X obj 100 100 output~;
#X obj 100 41 catch~ left;
#X obj 158 69 catch~ right;
#X obj 100 -21 loadbang;
#X msg 100 10 \; pd dsp 1 \;;
#X connect 1 0 0 0;
#X connect 2 0 0 1;
#X connect 3 0 4 0;
#X coords 0 -1 1 1 65 39 2 100 100;
#X restore 231 21 pd volume;
#N canvas 583 208 659 405 speed 0;
#X floatatom 236 114 10 0 0 0 - - -;
#X obj 103 115 hsl 128 15 0 1200 0 0 empty empty speed -2 -8 0 10 -262144
-1 -1 4617 1;
#X obj 86 28 loadbang;
#X obj 86 59 200;
#X obj 200 78 int;
#X obj 165 174 s playbackspeed;
#X connect 0 0 5 0;
#X connect 1 0 4 0;
#X connect 2 0 3 0;
#X connect 3 0 1 0;
#X connect 4 0 0 0;
#X coords 0 -1 1 1 199 30 2 100 100;
#X restore 21 30 pd speed;
#X obj 21 115 track;
#X obj 21 478 track;
#X obj 21 357 track;
#X obj 21 236 track;
#X coords 0 -1 1 1 960 960 1 10 10;
