#N canvas 296 192 1215 620 10;
#X obj 65 538 throw~ left;
#X obj 157 538 throw~ right;
#X obj 65 476 vline~;
#X obj 636 301 adc~;
#X obj 610 101 bng 15 250 50 0 empty empty empty 17 7 0 10 -258113
-1 -1;
#X msg 636 227 normalize;
#X obj 146 175 hradio 23 1 0 9 empty counter_radio empty 0 -8 0 10
-262144 -1 -1 0;
#N canvas 521 477 450 300 bangifequal 0;
#X obj 114 39 inlet;
#X obj 293 39 inlet;
#X obj 73 142 outlet;
#X obj 114 70 expr if ($f1 == $f2 \, 1 \, 0);
#X obj 75 97 spigot;
#X obj 28 144 bng 15 250 50 0 empty empty empty 17 7 0 10 -262144 -1
-1;
#X connect 0 0 3 0;
#X connect 0 0 4 0;
#X connect 1 0 3 1;
#X connect 3 0 4 1;
#X connect 4 0 5 0;
#X connect 4 0 2 0;
#X restore 65 277 pd bangifequal;
#X obj 65 308 bng 15 250 50 0 empty empty empty 17 7 0 10 -262144 -1
-1;
#X obj 610 332 tabwrite~ \$0-channel;
#X obj 636 258 s \$0-channel;
#X obj 65 507 tabread4~ \$0-channel;
#X obj 636 101 bng 15 250 50 0 empty empty empty 17 7 0 10 -262144
-1 -1;
#X obj 65 221 inlet;
#X obj 110 221 r counter;
#X obj 100 175 tgl 25 0 empty empty empty 17 7 0 10 -204786 -1 -1 0
1;
#X obj 65 249 spigot;
#X obj 668 101 bng 15 250 50 0 empty empty empty 17 7 0 10 -204800
-1 -1;
#X obj 833 296 until;
#X obj 833 324 f;
#X obj 866 324 + 1;
#X floatatom 895 237 15 0 0 0 - - -;
#X obj 898 213 hsl 128 15 0 44100 0 0 empty empty empty -2 -8 0 10
-262144 -1 -1 0 1;
#X obj 833 268 f;
#X obj 833 240 t b 0;
#X obj 833 352 tabread \$0-channel;
#X obj 833 380 tabwrite sample;
#X msg 895 264 resize \$1;
#X obj 895 292 s sample;
#X obj 958 292 s grain;
#X obj 691 101 bng 15 250 50 0 empty empty empty 17 7 0 10 -262144
-1 -1;
#X obj 552 510 tabread grain;
#X obj 552 537 tabwrite \$0-channel;
#X obj 552 454 until;
#X obj 552 482 f;
#X obj 585 482 + 1;
#X obj 552 426 f;
#X obj 552 398 t b 0;
#X obj 65 417 pack f f;
#X floatatom 21 363 5 0 0 0 - - -;
#N canvas 775 519 450 300 getChannelSizeOnBang 0;
#X obj 25 35 inlet;
#X floatatom 25 147 5 0 0 0 - - -;
#X obj 25 119 expr size("$s1");
#X obj 25 63 f \$0;
#X msg 25 91 symbol \$1-channel;
#X obj 29 187 outlet;
#X connect 0 0 3 0;
#X connect 2 0 1 0;
#X connect 2 0 5 0;
#X connect 3 0 4 0;
#X connect 4 0 2 0;
#X restore 65 334 pd getChannelSizeOnBang;
#N canvas 775 519 450 300 getChannelSizeOnBang 0;
#X obj 25 35 inlet;
#X floatatom 25 147 5 0 0 0 - - -;
#X obj 25 119 expr size("$s1");
#X obj 25 63 f \$0;
#X msg 25 91 symbol \$1-channel;
#X obj 29 187 outlet;
#X connect 0 0 3 0;
#X connect 2 0 1 0;
#X connect 2 0 5 0;
#X connect 3 0 4 0;
#X connect 4 0 2 0;
#X restore 1014 174 pd getChannelSizeOnBang;
#X obj 1055 141 loadbang;
#X obj 1043 113 bng 15 250 50 0 empty empty empty 17 7 0 10 -262144
-1 -1;
#X msg 457 282 resize 44100;
#X obj 457 310 s \$0-channel;
#X obj 172 464 print;
#X msg 65 445 0 \, \$1 \$2;
#X obj 43 391 - 1;
#X obj 161 390 - 1;
#X floatatom 415 401 15 0 0 0 - - -;
#X msg 415 428 resize \$1;
#X obj 415 456 s \$0-channel;
#X obj 415 373 expr size("grain");
#X floatatom 144 415 5 0 0 0 - - -;
#X obj 86 373 / 44.1;
#X obj 981 441 loadbang;
#X msg 981 469 resize 1;
#X obj 981 497 s \$0-channel;
#N canvas 0 22 450 278 (subpatch) 0;
#X array \$0-channel 100 float 2;
#X coords 0 1 99 -1 400 60 1 0 0;
#X restore 100 100 graph;
#X connect 2 0 11 0;
#X connect 3 0 9 0;
#X connect 3 1 9 0;
#X connect 4 0 9 0;
#X connect 4 0 44 0;
#X connect 5 0 10 0;
#X connect 6 0 7 1;
#X connect 7 0 8 0;
#X connect 8 0 40 0;
#X connect 11 0 0 0;
#X connect 11 0 1 0;
#X connect 12 0 5 0;
#X connect 13 0 16 0;
#X connect 14 0 16 0;
#X connect 15 0 16 1;
#X connect 16 0 7 0;
#X connect 17 0 24 0;
#X connect 17 0 41 0;
#X connect 18 0 19 0;
#X connect 19 0 20 0;
#X connect 19 0 25 0;
#X connect 19 0 26 1;
#X connect 20 0 19 1;
#X connect 21 0 23 1;
#X connect 21 0 27 0;
#X connect 22 0 21 0;
#X connect 23 0 18 0;
#X connect 24 0 23 0;
#X connect 24 1 19 1;
#X connect 25 0 26 0;
#X connect 27 0 28 0;
#X connect 27 0 29 0;
#X connect 30 0 53 0;
#X connect 30 0 37 0;
#X connect 31 0 32 0;
#X connect 33 0 34 0;
#X connect 34 0 35 0;
#X connect 34 0 31 0;
#X connect 34 0 32 1;
#X connect 35 0 34 1;
#X connect 36 0 33 0;
#X connect 37 0 36 0;
#X connect 37 1 34 1;
#X connect 38 0 47 0;
#X connect 40 0 39 0;
#X connect 40 0 48 0;
#X connect 40 0 55 0;
#X connect 41 0 22 0;
#X connect 42 0 41 0;
#X connect 43 0 41 0;
#X connect 44 0 45 0;
#X connect 47 0 2 0;
#X connect 47 0 46 0;
#X connect 48 0 38 0;
#X connect 49 0 54 0;
#X connect 49 0 38 1;
#X connect 50 0 51 0;
#X connect 51 0 52 0;
#X connect 53 0 50 0;
#X connect 53 0 36 1;
#X connect 55 0 49 0;
#X connect 56 0 57 0;
#X connect 57 0 58 0;
#X coords 0 -1 1 1 860 100 2 100 100;
