#N canvas 216 78 1375 714 10;
#X obj 67 609 throw~ left;
#X obj 159 609 throw~ right;
#X obj 67 499 vline~;
#X obj 654 309 adc~;
#X obj 617 139 bng 25 250 50 0 empty empty rec 0 30 0 10 -258113 -1
-1;
#X msg 636 211 normalize;
#X obj 67 331 bng 15 250 50 0 empty empty empty 17 7 0 10 -262144 -1
-1;
#X obj 654 337 tabwrite~ \$0-channel;
#X obj 636 239 s \$0-channel;
#X obj 67 530 tabread4~ \$0-channel;
#X obj 709 139 bng 25 250 50 0 empty empty norm 0 30 0 10 -228856 -1
-1;
#X obj 67 221 inlet;
#X obj 112 221 r counter;
#X obj 100 101 tgl 25 0 empty empty tracker 0 35 0 10 -204786 -1 -1
0 1;
#X obj 67 249 spigot;
#X obj 801 139 bng 25 250 50 0 empty empty syt> 0 30 0 10 -204800 -1
-1;
#X obj 829 509 until;
#X obj 829 537 f;
#X obj 862 537 + 1;
#X floatatom 690 441 15 0 0 0 - - -;
#X obj 829 481 f;
#X obj 829 565 tabread \$0-channel;
#X obj 829 593 tabwrite sample;
#X msg 690 468 resize \$1;
#X obj 690 496 s sample;
#X obj 753 496 s grain;
#X obj 837 139 bng 25 250 50 0 empty empty syt< 0 30 0 10 -203904 -1
-1;
#X obj 1069 458 tabread grain;
#X obj 1059 526 tabwrite \$0-channel;
#X obj 1069 402 until;
#X obj 1069 430 f;
#X obj 1102 430 + 1;
#X obj 1069 374 f;
#X obj 1069 346 t b 0;
#X obj 67 440 pack f f;
#X floatatom 23 386 5 0 0 0 - - -;
#N canvas 775 519 450 300 getChannelSizeOnBang 0;
#X obj 25 35 inlet;
#X floatatom 25 147 5 0 0 0 - - -;
#X obj 25 119 expr size("$s1");
#X obj 25 63 f \$0;
#X msg 25 91 symbol \$1-channel;
#X obj 29 187 outlet;
#X connect 0 0 3 0;
#X connect 2 0 1 0;
#X connect 2 0 5 0;
#X connect 3 0 4 0;
#X connect 4 0 2 0;
#X restore 67 357 pd getChannelSizeOnBang;
#N canvas 893 582 450 300 getChannelSizeOnBang 0;
#X obj 25 35 inlet;
#X floatatom 25 147 5 0 0 0 - - -;
#X obj 25 119 expr size("$s1");
#X obj 25 63 f \$0;
#X msg 25 91 symbol \$1-channel;
#X obj 29 187 outlet;
#X obj 91 153 print;
#X obj 101 31 bng 15 250 50 0 empty empty empty 17 7 0 10 -262144 -1
-1;
#X connect 0 0 3 0;
#X connect 2 0 1 0;
#X connect 2 0 5 0;
#X connect 2 0 6 0;
#X connect 3 0 4 0;
#X connect 4 0 2 0;
#X connect 7 0 3 0;
#X restore 803 340 pd getChannelSizeOnBang;
#X obj 803 312 loadbang;
#X obj 627 393 s \$0-channel;
#X obj 174 487 print;
#X msg 67 468 0 \, \$1 \$2;
#X obj 45 414 - 1;
#X floatatom 936 402 15 0 0 0 - - -;
#X msg 936 429 resize \$1;
#X obj 936 457 s \$0-channel;
#X obj 936 374 expr size("grain");
#X floatatom 152 444 5 0 0 0 - - -;
#X obj 13 12 loadbang;
#X msg 13 40 resize 1;
#X obj 13 68 s \$0-channel;
#X obj 883 481 0;
#X obj 883 509 s sampleStartSlider;
#X obj 829 453 t b 0;
#X obj 627 280 t b b;
#X obj 1042 318 t b b;
#X obj 67 303 spigot;
#X obj 67 277 bng 15 250 50 0 empty empty empty 17 7 0 10 -262144 -1
-1;
#X text 110 294 1 if for current counter the checkbox is checked \,
else 0;
#X obj 206 101 toggleradio;
#X obj 999 72 r counter_size;
#X obj 803 368 t b f;
#X obj 206 72 r counter;
#X obj 360 506 vline~;
#X obj 67 558 *~;
#X obj 360 422 - 10;
#X floatatom 407 367 5 0 0 0 - - -;
#X obj 360 450 pack f f;
#X msg 360 478 1 \$2 \, 0 \$2 \$1;
#X obj 340 347 loadbang;
#X obj 745 139 bng 25 250 50 0 empty empty clear 0 30 0 10 -99865 -258113
-1;
#X msg 764 211 const 0;
#X obj 764 239 s \$0-channel;
#X obj 483 465 soundfiler;
#X obj 483 363 openpanel;
#X obj 653 139 bng 25 250 50 0 empty empty open 0 30 0 10 -4034 -99865
-99865;
#X floatatom 483 489 15 0 0 0 - - -;
#X obj 528 335 f;
#X obj 543 307 \$0;
#X obj 483 391 pack s f;
#X msg 483 419 read -resize \$1 \$2-channel;
#X obj 90 383 / 44.1;
#X obj 485 564 tabplay~ \$0-channel;
#X obj 501 610 dac~;
#X obj 480 536 bng 15 250 50 0 empty empty empty 17 7 0 10 -262144
-1 -1;
#X obj 129 412 f \$1;
#X obj 1169 492 t f b;
#X obj 1218 517 f;
#X obj 1247 518 + 1;
#X obj 337 373 10;
#X obj 252 448 / 10;
#X obj 206 139 cnv 15 400 60 empty empty empty 20 12 0 14 -233017 -66577
0;
#N canvas 642 386 830 476 (subpatch) 0;
#X array \$0-channel 47231 float 2;
#X coords 0 1 47231 -1 400 60 1 0 0;
#X restore 206 139 graph;
#X obj 101 155 bng 25 250 50 0 empty empty playonce 0 35 0 10 -228856
-262144 -1;
#X obj 184 103 vsl 15 93 0 1 0 0 empty empty vol -20 5 0 10 -262130
-66577 -1 6900 1;
#X obj 67 581 *~;
#X obj 184 44 0.75;
#X floatatom 617 183 10 1 2500 0 - - -;
#X obj 596 68 1000;
#X obj 572 302 * 44.1;
#X obj 572 357 pack f;
#X msg 627 365 resize \$1;
#X obj 572 329 int;
#X connect 2 0 9 0;
#X connect 3 0 7 0;
#X connect 3 1 7 0;
#X connect 4 0 54 0;
#X connect 5 0 8 0;
#X connect 6 0 36 0;
#X connect 9 0 64 0;
#X connect 10 0 5 0;
#X connect 11 0 14 0;
#X connect 12 0 14 0;
#X connect 13 0 14 1;
#X connect 14 0 57 0;
#X connect 15 0 37 0;
#X connect 16 0 17 0;
#X connect 17 0 18 0;
#X connect 17 0 21 0;
#X connect 17 0 22 1;
#X connect 18 0 17 1;
#X connect 19 0 20 1;
#X connect 19 0 23 0;
#X connect 20 0 16 0;
#X connect 21 0 22 0;
#X connect 23 0 24 0;
#X connect 23 0 25 0;
#X connect 26 0 55 0;
#X connect 27 0 86 0;
#X connect 29 0 30 0;
#X connect 30 0 31 0;
#X connect 30 0 27 0;
#X connect 31 0 30 1;
#X connect 32 0 29 0;
#X connect 33 0 32 0;
#X connect 33 1 30 1;
#X connect 33 1 87 1;
#X connect 34 0 41 0;
#X connect 36 0 35 0;
#X connect 36 0 42 0;
#X connect 36 0 81 0;
#X connect 37 0 61 0;
#X connect 38 0 37 0;
#X connect 41 0 2 0;
#X connect 41 0 40 0;
#X connect 42 0 34 0;
#X connect 43 0 44 0;
#X connect 44 0 45 0;
#X connect 46 0 43 0;
#X connect 46 0 32 1;
#X connect 48 0 49 0;
#X connect 48 0 96 0;
#X connect 48 0 98 0;
#X connect 49 0 50 0;
#X connect 51 0 52 0;
#X connect 53 0 20 0;
#X connect 53 0 51 0;
#X connect 53 1 17 1;
#X connect 54 0 100 0;
#X connect 54 1 7 0;
#X connect 55 0 33 0;
#X connect 55 1 46 0;
#X connect 56 0 6 0;
#X connect 57 0 56 0;
#X connect 59 0 56 1;
#X connect 60 0 59 1;
#X connect 61 0 53 0;
#X connect 61 1 19 0;
#X connect 62 0 59 0;
#X connect 63 0 64 1;
#X connect 64 0 95 0;
#X connect 65 0 67 0;
#X connect 66 0 65 1;
#X connect 66 0 67 1;
#X connect 67 0 68 0;
#X connect 68 0 63 0;
#X connect 69 0 89 0;
#X connect 70 0 71 0;
#X connect 71 0 72 0;
#X connect 73 0 76 0;
#X connect 74 0 79 0;
#X connect 75 0 74 0;
#X connect 75 0 78 0;
#X connect 75 0 77 0;
#X connect 77 0 79 1;
#X connect 78 0 77 1;
#X connect 79 0 80 0;
#X connect 80 0 73 0;
#X connect 81 0 85 0;
#X connect 82 0 83 0;
#X connect 82 0 83 1;
#X connect 84 0 82 0;
#X connect 85 0 47 0;
#X connect 85 0 34 1;
#X connect 85 0 65 0;
#X connect 85 0 90 0;
#X connect 86 0 28 0;
#X connect 86 1 87 0;
#X connect 87 0 88 0;
#X connect 87 0 28 1;
#X connect 88 0 87 1;
#X connect 89 0 66 0;
#X connect 90 0 66 0;
#X connect 93 0 6 0;
#X connect 94 0 95 1;
#X connect 95 0 1 0;
#X connect 95 0 0 0;
#X connect 96 0 94 0;
#X connect 97 0 99 0;
#X connect 98 0 97 0;
#X connect 99 0 102 0;
#X connect 100 0 101 0;
#X connect 101 0 39 0;
#X connect 102 0 100 0;
#X coords 0 -1 1 1 930 100 2 100 100;
