#N canvas 139 202 1228 693 10;
#X obj 67 561 throw~ left;
#X obj 159 561 throw~ right;
#X obj 67 499 vline~;
#X obj 637 309 adc~;
#X obj 610 101 bng 15 250 50 0 empty empty rec 0 20 0 10 -258113 -1
-1;
#X msg 636 211 normalize;
#X obj 67 331 bng 15 250 50 0 empty empty empty 17 7 0 10 -262144 -1
-1;
#X obj 637 337 tabwrite~ \$0-channel;
#X obj 636 242 s \$0-channel;
#X obj 67 530 tabread4~ \$0-channel;
#X obj 636 101 bng 15 250 50 0 empty empty norm 0 20 0 10 -262144 -1
-1;
#X obj 67 221 inlet;
#X obj 112 221 r counter;
#X obj 100 174 tgl 25 0 empty empty empty 17 7 0 10 -204786 -1 -1 0
1;
#X obj 67 249 spigot;
#X obj 698 101 bng 15 250 50 0 empty empty synth> 0 20 0 10 -204800
-1 -1;
#X obj 957 408 until;
#X obj 957 436 f;
#X obj 990 436 + 1;
#X floatatom 818 340 15 0 0 0 - - -;
#X obj 957 380 f;
#X obj 957 464 tabread \$0-channel;
#X obj 957 492 tabwrite sample;
#X msg 818 367 resize \$1;
#X obj 818 395 s sample;
#X obj 881 395 s grain;
#X obj 751 101 bng 15 250 50 0 empty empty synth< 0 20 0 10 -204800
-1 -1;
#X obj 778 560 tabread grain;
#X obj 778 587 tabwrite \$0-channel;
#X obj 778 504 until;
#X obj 778 532 f;
#X obj 811 532 + 1;
#X obj 778 476 f;
#X obj 778 448 t b 0;
#X obj 67 440 pack f f;
#X floatatom 23 386 5 0 0 0 - - -;
#N canvas 775 519 450 300 getChannelSizeOnBang 0;
#X obj 25 35 inlet;
#X floatatom 25 147 5 0 0 0 - - -;
#X obj 25 119 expr size("$s1");
#X obj 25 63 f \$0;
#X msg 25 91 symbol \$1-channel;
#X obj 29 187 outlet;
#X connect 0 0 3 0;
#X connect 2 0 1 0;
#X connect 2 0 5 0;
#X connect 3 0 4 0;
#X connect 4 0 2 0;
#X restore 67 357 pd getChannelSizeOnBang;
#N canvas 893 582 450 300 getChannelSizeOnBang 0;
#X obj 25 35 inlet;
#X floatatom 25 147 5 0 0 0 - - -;
#X obj 25 119 expr size("$s1");
#X obj 25 63 f \$0;
#X msg 25 91 symbol \$1-channel;
#X obj 29 187 outlet;
#X obj 91 153 print;
#X connect 0 0 3 0;
#X connect 2 0 1 0;
#X connect 2 0 5 0;
#X connect 2 0 6 0;
#X connect 3 0 4 0;
#X connect 4 0 2 0;
#X restore 931 241 pd getChannelSizeOnBang;
#X obj 931 213 loadbang;
#X msg 610 365 resize 44100;
#X obj 610 393 s \$0-channel;
#X obj 174 487 print;
#X msg 67 468 0 \, \$1 \$2;
#X obj 45 414 - 1;
#X obj 163 413 - 1;
#X floatatom 645 504 15 0 0 0 - - -;
#X msg 645 531 resize \$1;
#X obj 645 559 s \$0-channel;
#X obj 645 476 expr size("grain");
#X floatatom 146 438 5 0 0 0 - - -;
#X obj 88 396 / 44.1;
#X obj 13 12 loadbang;
#X msg 13 40 resize 1;
#X obj 13 68 s \$0-channel;
#N canvas 0 22 450 278 (subpatch) 0;
#X array \$0-channel 44100 float 2;
#X coords 0 1 44100 -1 400 60 1 0 0;
#X restore 100 100 graph;
#X obj 1011 380 0;
#X obj 1011 408 s sampleStartSlider;
#X obj 957 352 t b 0;
#X obj 610 280 t b b;
#X obj 751 420 t b b;
#X obj 67 303 spigot;
#X obj 67 277 bng 15 250 50 0 empty empty empty 17 7 0 10 -262144 -1
-1;
#X text 110 294 1 if for current counter the checkbox is checked \,
else 0;
#X text 466 365 records 1 second fixed;
#X obj 155 174 toggleradio;
#X obj 948 72 r counter_size;
#X obj 931 269 t b f;
#X obj 155 72 r counter;
#X connect 2 0 9 0;
#X connect 3 0 7 0;
#X connect 3 1 7 0;
#X connect 4 0 58 0;
#X connect 5 0 8 0;
#X connect 6 0 36 0;
#X connect 9 0 0 0;
#X connect 9 0 1 0;
#X connect 10 0 5 0;
#X connect 11 0 14 0;
#X connect 12 0 14 0;
#X connect 13 0 14 1;
#X connect 14 0 61 0;
#X connect 15 0 37 0;
#X connect 16 0 17 0;
#X connect 17 0 18 0;
#X connect 17 0 21 0;
#X connect 17 0 22 1;
#X connect 18 0 17 1;
#X connect 19 0 20 1;
#X connect 19 0 23 0;
#X connect 20 0 16 0;
#X connect 21 0 22 0;
#X connect 23 0 24 0;
#X connect 23 0 25 0;
#X connect 26 0 59 0;
#X connect 27 0 28 0;
#X connect 29 0 30 0;
#X connect 30 0 31 0;
#X connect 30 0 27 0;
#X connect 30 0 28 1;
#X connect 31 0 30 1;
#X connect 32 0 29 0;
#X connect 33 0 32 0;
#X connect 33 1 30 1;
#X connect 34 0 42 0;
#X connect 36 0 35 0;
#X connect 36 0 43 0;
#X connect 36 0 50 0;
#X connect 37 0 66 0;
#X connect 38 0 37 0;
#X connect 39 0 40 0;
#X connect 42 0 2 0;
#X connect 42 0 41 0;
#X connect 43 0 34 0;
#X connect 44 0 49 0;
#X connect 44 0 34 1;
#X connect 45 0 46 0;
#X connect 46 0 47 0;
#X connect 48 0 45 0;
#X connect 48 0 32 1;
#X connect 50 0 44 0;
#X connect 51 0 52 0;
#X connect 52 0 53 0;
#X connect 55 0 56 0;
#X connect 57 0 20 0;
#X connect 57 0 55 0;
#X connect 57 1 17 1;
#X connect 58 0 39 0;
#X connect 58 1 7 0;
#X connect 59 0 48 0;
#X connect 59 1 33 0;
#X connect 60 0 6 0;
#X connect 61 0 60 0;
#X connect 64 0 60 1;
#X connect 65 0 64 1;
#X connect 66 0 57 0;
#X connect 66 1 19 0;
#X connect 67 0 64 0;
#X coords 0 -1 1 1 860 100 1 100 100;
